<svg width="141" height="100" viewBox="0 0 141 100" fill="none" xmlns="http://www.w3.org/2000/svg">
<g clip-path="url(#clip0_38_72)">
<mask id="mask0_38_72" style="mask-type:luminance" maskUnits="userSpaceOnUse" x="25" y="-16" width="162" height="153">
<path d="M187 -16H25V137H187V-16Z" fill="white"/>
</mask>
<g mask="url(#mask0_38_72)">
<mask id="mask1_38_72" style="mask-type:luminance" maskUnits="userSpaceOnUse" x="16" y="-27" width="183" height="173">
<path d="M198.47 -26.9007H16.2198V145.225H198.47V-26.9007Z" fill="white"/>
</mask>
<g mask="url(#mask1_38_72)">
<mask id="mask2_38_72" style="mask-type:luminance" maskUnits="userSpaceOnUse" x="16" y="-27" width="183" height="173">
<path d="M16.2198 -26.9007H198.47V145.225H16.2198V-26.9007Z" fill="white"/>
</mask>
<g mask="url(#mask2_38_72)">
<path d="M83.8743 31.8249L100.244 1.02438C102.137 -2.52675 106.716 -3.95202 110.45 -2.16445C111.908 -1.46386 113.085 -0.328446 113.826 1.07265L129.301 30.7861C130.554 33.226 133.036 34.8687 135.875 35.1828L168.231 38.8547C172.631 39.362 175.777 43.1547 175.266 47.3339C175.035 49.049 174.217 50.6434 172.912 51.8513L147.308 75.6944C146.259 76.6606 145.773 78.0139 145.952 79.3909L150.224 111.568C150.838 116.182 147.385 120.386 142.525 120.966C140.683 121.183 138.842 120.868 137.205 120.023L110.169 106.06C108.199 105.046 105.846 105.021 103.877 105.988L75.8426 119.564C71.9036 121.473 67.0949 119.975 65.0742 116.23C64.3069 114.83 64.0511 113.259 64.2813 111.713L66.5066 96.9285C67.6065 89.7054 72.3384 83.4248 79.1935 80.1154L110.297 65.1137C111.115 64.7274 111.448 63.7612 111.038 62.9633C110.706 62.3597 110.015 61.9971 109.299 62.0943L71.2386 67.2634C65.4323 68.0368 59.5493 66.4907 54.9708 62.9633L42.3095 53.2041C38.703 50.426 38.1147 45.353 41.0562 41.9227C42.4374 40.3282 44.407 39.2895 46.5556 39.0238L79.04 35.0862C81.1119 34.8204 82.9279 33.6125 83.8743 31.8249Z" fill="white" fill-opacity="0.1"/>
<path d="M112.676 6.50781C109.376 5.80722 105.872 7.30494 104.286 10.3004L87.8903 41.101C86.9439 42.8887 85.1534 44.0965 83.0559 44.3622L50.5715 48.324C48.4741 48.5898 46.5557 49.556 45.2001 51.078L57.2219 60.3544C61.0075 63.2777 65.9185 64.5575 70.7528 63.9058L108.788 58.76C111.039 58.4701 113.238 59.533 114.236 61.4417C115.54 63.8813 114.517 66.877 111.934 68.1332L102.009 72.9159L113.315 71.3699C114.031 71.2735 114.747 71.6361 115.054 72.2397C115.489 73.0368 115.131 74.003 114.313 74.3901L83.2094 89.3917C76.3545 92.7011 71.6225 98.9818 70.5226 106.205L69.0646 115.796C70.3947 117.052 72.4921 117.39 74.2315 116.544L102.214 102.968C105.258 101.494 108.864 101.542 111.857 103.088L138.893 117.052C139.865 117.559 140.991 117.752 142.09 117.632C144.955 117.293 147.027 114.781 146.669 112.003L142.423 79.8009C142.116 77.3851 142.986 74.9937 144.802 73.303L170.406 49.4594C170.84 49.0488 171.173 48.5656 171.403 48.0341L139.891 44.4588C137.052 44.1448 134.596 42.478 133.317 40.0622L132.089 37.6707C129.506 36.6077 127.383 34.7235 126.104 32.2836L112.676 6.50781Z" fill="white" fill-opacity="0.1"/>
<path d="M112.062 -5.18314C106.537 -7.81627 99.8353 -5.71459 97.0729 -0.496599L80.6772 30.3281C80.2679 31.1011 79.475 31.6326 78.5797 31.7293L46.0953 35.691C43.0259 36.0534 40.2123 37.5511 38.2684 39.822C34.0991 44.7017 34.892 51.8523 40.0333 55.8141L52.7201 65.598C58.066 69.7045 64.9465 71.516 71.7504 70.598L98.6331 66.9505L77.5566 77.1211C69.653 80.9377 64.2303 88.1364 62.977 96.4466L60.7261 111.231C60.3936 113.478 60.7773 115.748 61.8771 117.778C64.7674 123.165 71.776 125.315 77.4799 122.561L105.488 108.984C106.409 108.525 107.509 108.55 108.43 109.032L135.466 122.971C137.742 124.155 140.377 124.638 142.96 124.324C149.789 123.503 154.598 117.584 153.754 111.158L149.508 78.9564C149.457 78.6427 149.585 78.3046 149.815 78.0873L175.419 54.2438C177.286 52.4803 178.489 50.1854 178.796 47.7214C179.537 41.7062 175.036 36.2467 168.666 35.5219L136.284 31.85C134.673 31.6809 133.24 30.7146 132.499 29.3135L117.049 -0.424153C115.975 -2.47749 114.21 -4.14435 112.062 -5.18314ZM103.442 2.52309C104.439 0.638814 106.869 -0.110045 108.839 0.832052C109.606 1.19443 110.246 1.8225 110.629 2.57136L126.104 32.2849C127.895 35.7394 131.399 38.0826 135.44 38.5416L167.822 42.2135C170.252 42.4793 171.992 44.581 171.71 46.9241C171.582 47.8905 171.122 48.7843 170.406 49.4607L144.802 73.3038C142.986 74.9952 142.116 77.3866 142.423 79.8025L146.669 112.004C147.027 114.782 144.955 117.294 142.09 117.632C140.991 117.753 139.865 117.56 138.893 117.053L111.857 103.09C108.864 101.544 105.258 101.519 102.214 102.993L74.2059 116.57C72.0317 117.609 69.3716 116.787 68.2461 114.709C67.8369 113.937 67.6834 113.042 67.8113 112.173L70.0366 97.4128C70.9575 91.2767 74.9988 85.9385 80.8051 83.1363L111.908 68.1339C114.517 66.8778 115.54 63.8828 114.236 61.4425C113.213 59.5343 111.039 58.4714 108.788 58.7612L70.7273 63.9065C65.8929 64.5591 61.0075 63.2785 57.2219 60.3556L44.5606 50.5719C42.4632 48.9534 42.1307 46.0303 43.8444 44.0494C44.6373 43.1315 45.7628 42.5275 46.9905 42.3826L79.475 38.4208C82.749 38.0343 85.5882 36.1259 87.0718 33.3478L103.442 2.52309Z" fill="white" fill-opacity="0.1"/>
</g>
</g>
</g>
</g>
<defs>
<clipPath id="clip0_38_72">
<rect width="162" height="153" fill="white" transform="translate(25 -16)"/>
</clipPath>
</defs>
</svg>
